{
    "asset" : {
        "generator" : "Khronos glTF Blender I/O v1.5.17",
        "version" : "2.0"
    },
    "scene" : 0,
    "scenes" : [
        {
            "name" : "Scene",
            "nodes" : [
                0,
                1,
                2,
                3,
                4,
                5,
                6,
                7,
                8,
                9,
                10,
                11,
                12,
                13,
                14,
                15
            ]
        }
    ],
    "nodes" : [
        {
            "name" : "Light",
            "rotation" : [
                0.16907575726509094,
                0.7558803558349609,
                -0.27217137813568115,
                0.570947527885437
            ],
            "translation" : [
                4.076245307922363,
                5.903861999511719,
                -1.0054539442062378
            ]
        },
        {
            "name" : "Camera",
            "rotation" : [
                0.483536034822464,
                0.33687159419059753,
                -0.20870360732078552,
                0.7804827094078064
            ],
            "translation" : [
                7.358891487121582,
                4.958309173583984,
                6.925790786743164
            ]
        },
        {
            "mesh" : 0,
            "name" : "huevito.002",
            "rotation" : [
                0.7071068286895752,
                0,
                0,
                0.7071067094802856
            ]
        },
        {
            "mesh" : 1,
            "name" : "amarillo.003",
            "rotation" : [
                0.7071068286895752,
                0,
                0,
                0.7071067094802856
            ]
        },
        {
            "mesh" : 2,
            "name" : "cascar\u00f3n.005",
            "rotation" : [
                0.7071068286895752,
                0,
                0,
                0.7071067094802856
            ]
        },
        {
            "mesh" : 3,
            "name" : "cascar\u00f3n_2.006",
            "rotation" : [
                0.7071068286895752,
                0,
                0,
                0.7071067094802856
            ]
        },
        {
            "mesh" : 4,
            "name" : "contenedor1.007",
            "rotation" : [
                0.7071068286895752,
                0,
                0,
                0.7071067094802856
            ]
        },
        {
            "mesh" : 5,
            "name" : "proyectil.008",
            "rotation" : [
                0.7071068286895752,
                0,
                0,
                0.7071067094802856
            ]
        },
        {
            "mesh" : 6,
            "name" : "proyectil_2.009",
            "rotation" : [
                0.7071068286895752,
                0,
                0,
                0.7071067094802856
            ]
        },
        {
            "mesh" : 7,
            "name" : "lengua.010",
            "rotation" : [
                0.7071068286895752,
                0,
                0,
                0.7071067094802856
            ]
        },
        {
            "mesh" : 8,
            "name" : "esfera_fucsia.011",
            "rotation" : [
                0.7071068286895752,
                0,
                0,
                0.7071067094802856
            ]
        },
        {
            "mesh" : 9,
            "name" : "esfera_ancla.012",
            "rotation" : [
                0.7071068286895752,
                0,
                0,
                0.7071067094802856
            ]
        },
        {
            "mesh" : 10,
            "name" : "Planos.013",
            "rotation" : [
                0.7071068286895752,
                0,
                0,
                0.7071067094802856
            ]
        },
        {
            "mesh" : 11,
            "name" : "Torus.014",
            "rotation" : [
                0.7071068286895752,
                0,
                0,
                0.7071067094802856
            ],
            "translation" : [
                0,
                1.8334115743637085,
                0
            ]
        },
        {
            "mesh" : 12,
            "name" : "contenedor2.015",
            "rotation" : [
                0.7071068286895752,
                0,
                0,
                0.7071067094802856
            ]
        },
        {
            "mesh" : 13,
            "name" : "conector.016",
            "rotation" : [
                0.7071068286895752,
                0,
                0,
                0.7071067094802856
            ]
        }
    ],
    "materials" : [
        {
            "doubleSided" : true,
            "name" : "None",
            "pbrMetallicRoughness" : {}
        }
    ],
    "meshes" : [
        {
            "name" : "huevito.002",
            "primitives" : [
                {
                    "attributes" : {
                        "POSITION" : 0,
                        "NORMAL" : 1
                    },
                    "indices" : 2,
                    "material" : 0
                }
            ]
        },
        {
            "name" : "amarillo.003",
            "primitives" : [
                {
                    "attributes" : {
                        "POSITION" : 3,
                        "NORMAL" : 4
                    },
                    "indices" : 2,
                    "material" : 0
                }
            ]
        },
        {
            "name" : "cascar\u00f3n.005",
            "primitives" : [
                {
                    "attributes" : {
                        "POSITION" : 5,
                        "NORMAL" : 6
                    },
                    "indices" : 2,
                    "material" : 0
                }
            ]
        },
        {
            "name" : "cascar\u00f3n_2.006",
            "primitives" : [
                {
                    "attributes" : {
                        "POSITION" : 7,
                        "NORMAL" : 8
                    },
                    "indices" : 2,
                    "material" : 0
                }
            ]
        },
        {
            "name" : "contenedor1.007",
            "primitives" : [
                {
                    "attributes" : {
                        "POSITION" : 9,
                        "NORMAL" : 10
                    },
                    "indices" : 2,
                    "material" : 0
                }
            ]
        },
        {
            "name" : "proyectil.008",
            "primitives" : [
                {
                    "attributes" : {
                        "POSITION" : 11,
                        "NORMAL" : 12
                    },
                    "indices" : 2,
                    "material" : 0
                }
            ]
        },
        {
            "name" : "proyectil_2.009",
            "primitives" : [
                {
                    "attributes" : {
                        "POSITION" : 13,
                        "NORMAL" : 14
                    },
                    "indices" : 2,
                    "material" : 0
                }
            ]
        },
        {
            "name" : "lengua.010",
            "primitives" : [
                {
                    "attributes" : {
                        "POSITION" : 15,
                        "NORMAL" : 16
                    },
                    "indices" : 2,
                    "material" : 0
                }
            ]
        },
        {
            "name" : "esfera_fucsia.011",
            "primitives" : [
                {
                    "attributes" : {
                        "POSITION" : 17,
                        "NORMAL" : 18
                    },
                    "indices" : 2,
                    "material" : 0
                }
            ]
        },
        {
            "name" : "esfera_ancla.012",
            "primitives" : [
                {
                    "attributes" : {
                        "POSITION" : 19,
                        "NORMAL" : 20
                    },
                    "indices" : 2,
                    "material" : 0
                }
            ]
        },
        {
            "name" : "Planos.013",
            "primitives" : [
                {
                    "attributes" : {
                        "POSITION" : 21,
                        "NORMAL" : 22
                    },
                    "indices" : 23,
                    "material" : 0
                }
            ]
        },
        {
            "name" : "Torus.014",
            "primitives" : [
                {
                    "attributes" : {
                        "POSITION" : 24,
                        "NORMAL" : 25
                    },
                    "indices" : 26,
                    "material" : 0
                }
            ]
        },
        {
            "name" : "contenedor2.015",
            "primitives" : [
                {
                    "attributes" : {
                        "POSITION" : 27,
                        "NORMAL" : 28
                    },
                    "indices" : 2,
                    "material" : 0
                }
            ]
        },
        {
            "name" : "conector.016",
            "primitives" : [
                {
                    "attributes" : {
                        "POSITION" : 29,
                        "NORMAL" : 30
                    },
                    "indices" : 2,
                    "material" : 0
                }
            ]
        }
    ],
    "accessors" : [
        {
            "bufferView" : 0,
            "componentType" : 5126,
            "count" : 2562,
            "max" : [
                2.4755399227142334,
                -3.844322919845581,
                -14.746009826660156
            ],
            "min" : [
                -2.659087896347046,
                -9.08183479309082,
                -22.43655014038086
            ],
            "type" : "VEC3"
        },
        {
            "bufferView" : 1,
            "componentType" : 5126,
            "count" : 2562,
            "type" : "VEC3"
        },
        {
            "bufferView" : 2,
            "componentType" : 5123,
            "count" : 15360,
            "type" : "SCALAR"
        },
        {
            "bufferView" : 3,
            "componentType" : 5126,
            "count" : 2562,
            "max" : [
                2.979135036468506,
                3.060753107070923,
                4.468817234039307
            ],
            "min" : [
                -2.9768269062042236,
                -3.2132999897003174,
                -11.076020240783691
            ],
            "type" : "VEC3"
        },
        {
            "bufferView" : 4,
            "componentType" : 5126,
            "count" : 2562,
            "type" : "VEC3"
        },
        {
            "bufferView" : 5,
            "componentType" : 5126,
            "count" : 2562,
            "max" : [
                -10.331290245056152,
                19.375179290771484,
                -17.248659133911133
            ],
            "min" : [
                -14.789609909057617,
                12.832070350646973,
                -22.536500930786133
            ],
            "type" : "VEC3"
        },
        {
            "bufferView" : 6,
            "componentType" : 5126,
            "count" : 2562,
            "type" : "VEC3"
        },
        {
            "bufferView" : 7,
            "componentType" : 5126,
            "count" : 2562,
            "max" : [
                -16.025890350341797,
                -4.891364097595215,
                -7.370458126068115
            ],
            "min" : [
                -21.079660415649414,
                -11.056650161743164,
                -12.113920211791992
            ],
            "type" : "VEC3"
        },
        {
            "bufferView" : 8,
            "componentType" : 5126,
            "count" : 2562,
            "type" : "VEC3"
        },
        {
            "bufferView" : 9,
            "componentType" : 5126,
            "count" : 2562,
            "max" : [
                32.3621711730957,
                -5.348705768585205,
                -8.91051197052002
            ],
            "min" : [
                20.874170303344727,
                -21.09878921508789,
                -24.132490158081055
            ],
            "type" : "VEC3"
        },
        {
            "bufferView" : 10,
            "componentType" : 5126,
            "count" : 2562,
            "type" : "VEC3"
        },
        {
            "bufferView" : 11,
            "componentType" : 5126,
            "count" : 2562,
            "max" : [
                15.325559616088867,
                19.55388069152832,
                -13.450909614562988
            ],
            "min" : [
                14.051409721374512,
                15.125229835510254,
                -14.80344009399414
            ],
            "type" : "VEC3"
        },
        {
            "bufferView" : 12,
            "componentType" : 5126,
            "count" : 2562,
            "type" : "VEC3"
        },
        {
            "bufferView" : 13,
            "componentType" : 5126,
            "count" : 2562,
            "max" : [
                5.612110137939453,
                19.111440658569336,
                -13.450909614562988
            ],
            "min" : [
                4.217196941375732,
                14.7121000289917,
                -14.80344009399414
            ],
            "type" : "VEC3"
        },
        {
            "bufferView" : 14,
            "componentType" : 5126,
            "count" : 2562,
            "type" : "VEC3"
        },
        {
            "bufferView" : 15,
            "componentType" : 5126,
            "count" : 2562,
            "max" : [
                18.46830940246582,
                6.042416095733643,
                -1.0520700216293335
            ],
            "min" : [
                3.395505905151367,
                -1.6034810543060303,
                -15.872400283813477
            ],
            "type" : "VEC3"
        },
        {
            "bufferView" : 16,
            "componentType" : 5126,
            "count" : 2562,
            "type" : "VEC3"
        },
        {
            "bufferView" : 17,
            "componentType" : 5126,
            "count" : 2562,
            "max" : [
                14.078359603881836,
                0.7762393951416016,
                -0.6457461714744568
            ],
            "min" : [
                2.3102269172668457,
                -10.136429786682129,
                -13.186599731445312
            ],
            "type" : "VEC3"
        },
        {
            "bufferView" : 18,
            "componentType" : 5126,
            "count" : 2562,
            "type" : "VEC3"
        },
        {
            "bufferView" : 19,
            "componentType" : 5126,
            "count" : 2562,
            "max" : [
                -12.444470405578613,
                3,
                -2.6328160762786865
            ],
            "min" : [
                -18.444469451904297,
                -3,
                -8.632816314697266
            ],
            "type" : "VEC3"
        },
        {
            "bufferView" : 20,
            "componentType" : 5126,
            "count" : 2562,
            "type" : "VEC3"
        },
        {
            "bufferView" : 21,
            "componentType" : 5126,
            "count" : 100,
            "max" : [
                -2.901431083679199,
                -1.799456000328064,
                -5.1681671142578125
            ],
            "min" : [
                -8.849781036376953,
                -13.240269660949707,
                -27.876909255981445
            ],
            "type" : "VEC3"
        },
        {
            "bufferView" : 22,
            "componentType" : 5126,
            "count" : 100,
            "type" : "VEC3"
        },
        {
            "bufferView" : 23,
            "componentType" : 5123,
            "count" : 486,
            "type" : "SCALAR"
        },
        {
            "bufferView" : 24,
            "componentType" : 5126,
            "count" : 3888,
            "max" : [
                8.089734077453613,
                -19.300369262695312,
                -3.8362069129943848
            ],
            "min" : [
                -8.08973503112793,
                -22.585830688476562,
                -6.711672782897949
            ],
            "type" : "VEC3"
        },
        {
            "bufferView" : 25,
            "componentType" : 5126,
            "count" : 3888,
            "type" : "VEC3"
        },
        {
            "bufferView" : 26,
            "componentType" : 5123,
            "count" : 23328,
            "type" : "SCALAR"
        },
        {
            "bufferView" : 27,
            "componentType" : 5126,
            "count" : 2562,
            "max" : [
                13.284919738769531,
                25.381940841674805,
                -9.340542793273926
            ],
            "min" : [
                3.5428240299224854,
                11.57781982421875,
                -20.26671028137207
            ],
            "type" : "VEC3"
        },
        {
            "bufferView" : 28,
            "componentType" : 5126,
            "count" : 2562,
            "type" : "VEC3"
        },
        {
            "bufferView" : 29,
            "componentType" : 5126,
            "count" : 2562,
            "max" : [
                29.19002914428711,
                25.297950744628906,
                -10.577850341796875
            ],
            "min" : [
                5.71287202835083,
                -18.80512046813965,
                -16.32761001586914
            ],
            "type" : "VEC3"
        },
        {
            "bufferView" : 30,
            "componentType" : 5126,
            "count" : 2562,
            "type" : "VEC3"
        }
    ],
    "bufferViews" : [
        {
            "buffer" : 0,
            "byteLength" : 30744,
            "byteOffset" : 0
        },
        {
            "buffer" : 0,
            "byteLength" : 30744,
            "byteOffset" : 30744
        },
        {
            "buffer" : 0,
            "byteLength" : 30720,
            "byteOffset" : 61488
        },
        {
            "buffer" : 0,
            "byteLength" : 30744,
            "byteOffset" : 92208
        },
        {
            "buffer" : 0,
            "byteLength" : 30744,
            "byteOffset" : 122952
        },
        {
            "buffer" : 0,
            "byteLength" : 30744,
            "byteOffset" : 153696
        },
        {
            "buffer" : 0,
            "byteLength" : 30744,
            "byteOffset" : 184440
        },
        {
            "buffer" : 0,
            "byteLength" : 30744,
            "byteOffset" : 215184
        },
        {
            "buffer" : 0,
            "byteLength" : 30744,
            "byteOffset" : 245928
        },
        {
            "buffer" : 0,
            "byteLength" : 30744,
            "byteOffset" : 276672
        },
        {
            "buffer" : 0,
            "byteLength" : 30744,
            "byteOffset" : 307416
        },
        {
            "buffer" : 0,
            "byteLength" : 30744,
            "byteOffset" : 338160
        },
        {
            "buffer" : 0,
            "byteLength" : 30744,
            "byteOffset" : 368904
        },
        {
            "buffer" : 0,
            "byteLength" : 30744,
            "byteOffset" : 399648
        },
        {
            "buffer" : 0,
            "byteLength" : 30744,
            "byteOffset" : 430392
        },
        {
            "buffer" : 0,
            "byteLength" : 30744,
            "byteOffset" : 461136
        },
        {
            "buffer" : 0,
            "byteLength" : 30744,
            "byteOffset" : 491880
        },
        {
            "buffer" : 0,
            "byteLength" : 30744,
            "byteOffset" : 522624
        },
        {
            "buffer" : 0,
            "byteLength" : 30744,
            "byteOffset" : 553368
        },
        {
            "buffer" : 0,
            "byteLength" : 30744,
            "byteOffset" : 584112
        },
        {
            "buffer" : 0,
            "byteLength" : 30744,
            "byteOffset" : 614856
        },
        {
            "buffer" : 0,
            "byteLength" : 1200,
            "byteOffset" : 645600
        },
        {
            "buffer" : 0,
            "byteLength" : 1200,
            "byteOffset" : 646800
        },
        {
            "buffer" : 0,
            "byteLength" : 972,
            "byteOffset" : 648000
        },
        {
            "buffer" : 0,
            "byteLength" : 46656,
            "byteOffset" : 648972
        },
        {
            "buffer" : 0,
            "byteLength" : 46656,
            "byteOffset" : 695628
        },
        {
            "buffer" : 0,
            "byteLength" : 46656,
            "byteOffset" : 742284
        },
        {
            "buffer" : 0,
            "byteLength" : 30744,
            "byteOffset" : 788940
        },
        {
            "buffer" : 0,
            "byteLength" : 30744,
            "byteOffset" : 819684
        },
        {
            "buffer" : 0,
            "byteLength" : 30744,
            "byteOffset" : 850428
        },
        {
            "buffer" : 0,
            "byteLength" : 30744,
            "byteOffset" : 881172
        }
    ],
    "buffers" : [
        {
            "byteLength" : 911916,
            "uri" : "data:application/octet-stream;base64,"
        }
    ]
}
